<?xml version="1.0" standalone="no"?>
<!DOCTYPE svg PUBLIC "-//W3C//DTD SVG 20010904//EN"
 "http://www.w3.org/TR/2001/REC-SVG-20010904/DTD/svg10.dtd">
<svg version="1.0" xmlns="http://www.w3.org/2000/svg"
 width="700.000000pt" height="700.000000pt" viewBox="0 0 700.000000 700.000000"
 preserveAspectRatio="xMidYMid meet">
<metadata>
Created by potrace 1.14, written by Peter Selinger 2001-2017
</metadata>
<g transform="translate(0.000000,700.000000) scale(0.100000,-0.100000)"
fill="#000000" stroke="none">
<path d="M3288 6985 c-1 -1 -41 -6 -88 -9 -47 -4 -96 -8 -110 -10 -14 -2 -50
-7 -80 -11 -402 -49 -894 -218 -1260 -433 -154 -90 -426 -278 -486 -336 -6 -6
-46 -42 -90 -81 -332 -295 -605 -653 -804 -1055 -37 -74 -84 -178 -105 -230
-21 -52 -43 -108 -51 -125 -30 -70 -121 -395 -138 -495 -3 -19 -8 -46 -11 -60
-8 -38 -13 -71 -20 -120 -3 -25 -8 -56 -10 -70 -4 -29 -14 -122 -21 -200 -7
-77 -7 -403 0 -475 3 -33 8 -93 11 -133 4 -41 8 -82 10 -92 2 -10 6 -40 10
-67 9 -63 44 -240 55 -278 5 -16 12 -45 15 -62 10 -61 76 -268 127 -398 179
-459 437 -854 783 -1200 66 -66 144 -140 174 -165 29 -25 59 -50 65 -55 65
-61 315 -240 422 -303 251 -147 464 -245 739 -337 97 -33 329 -90 440 -110
122 -21 300 -43 415 -51 71 -4 360 -4 415 1 28 2 84 7 125 10 81 7 276 33 300
40 8 2 30 7 47 10 18 3 63 12 100 21 97 23 101 24 123 29 23 4 32 7 191 59
371 121 680 284 1024 538 132 98 440 389 537 508 111 136 156 196 227 300 165
243 271 448 391 750 44 111 135 436 154 552 3 18 8 44 10 58 34 188 50 380 50
595 0 227 -13 392 -50 618 -13 78 -62 290 -84 362 -72 230 -118 349 -210 540
-121 253 -293 520 -474 735 -82 97 -296 315 -375 380 -29 25 -66 56 -82 70
-87 76 -422 310 -444 310 -3 0 -24 12 -48 27 -67 42 -262 137 -393 191 -288
118 -626 206 -914 237 -30 3 -71 8 -90 11 -40 5 -516 14 -522 9z"/>
</g>
</svg>
